# File produced by Open Asset Import Library (http://www.assimp.sf.net)
# (assimp v5.0.1588609223)

mtllib result.mtl

# 248 vertex positions
v  0.078910589 0.11195501 0.076816872
v  0.053934157 0.19144331 0.076816879
v  0.053934127 0.11195502 0.076816879
v  0.078910619 0.17585737 0.076816872
v  0.078910619 0.19144329 0.076816872
v  0.11008248 0.111955 0.076816864
v  0.11008251 0.17585737 0.076816864
v  0.085106015 0.15871283 0.076816872
v  0.085106015 0.11195501 0.076816872
v  0.078910589 0.15871283 0.076816872
v  0.030555218 0.12909955 0.076816879
v  0.046141177 0.11195502 0.076816879
v  0.046141177 0.12909955 0.076816879
v  0.0055787265 0.11195502 0.076816887
v  0.030555248 0.19144331 0.076816879
v  0.0055787563 0.19144332 0.076816887
v  0.030555248 0.17585737 0.076816879
v  0.046141177 0.15871283 0.076816879
v  0.046141207 0.17585737 0.076816879
v  0.030555218 0.15871283 0.076816879
v  -0.0022141933 0.17585738 0.076816887
v  -0.027190685 0.11195503 0.076816894
v  -0.0022142231 0.11195502 0.076816887
v  -0.027190685 0.15871285 0.076816894
v  -0.033386111 0.15871286 0.076816894
v  -0.058362573 0.11195504 0.076816902
v  -0.033386111 0.11195503 0.076816894
v  -0.058362558 0.15871286 0.076816902
v  -0.06455797 0.15871286 0.076816902
v  -0.089534447 0.11195505 0.076816909
v  -0.064557984 0.11195504 0.076816902
v  -0.089534432 0.17585739 0.076816909
v  -0.04897204 0.16806442 0.076816902
v  -0.048972011 0.17585739 0.076816902
v  -0.042776644 0.16806442 0.076816902
v  -0.042776614 0.17585739 0.076816902
v  -0.14568278 0.17585742 0.076816924
v  -0.097327396 0.15871286 0.076816909
v  -0.097327396 0.17585739 0.076816909
v  -0.1207063 0.15871288 0.076816916
v  -0.1456828 0.11195506 0.076816924
v  -0.12070632 0.11195505 0.076816916
v  -0.17845222 0.13533399 0.076816931
v  -0.15347576 0.17585742 0.076816924
v  -0.18464765 0.13533399 0.076816931
v  -0.17845222 0.12909961 0.076816931
v  -0.15347578 0.11195506 0.076816924
v  -0.18464765 0.12909961 0.076816931
v  -0.20962411 0.11195508 0.076816939
v  -0.17845222 0.15247852 0.076816931
v  -0.20962411 0.15247852 0.076816939
v  -0.17845222 0.15871289 0.076816931
v  -0.2096241 0.17585742 0.076816939
v  -0.20962411 0.15871289 0.076816939
v  -0.22521004 0.14312696 0.076816946
v  -0.2501865 0.11195508 0.076816946
v  -0.22521006 0.11195508 0.076816946
v  -0.2501865 0.12754102 0.076816946
v  -0.26417491 0.12754104 0.076816954
v  -0.28915137 0.1119551 0.076816961
v  -0.26417491 0.11195509 0.076816954
v  -0.28915137 0.14312698 0.076816961
v  -0.29694432 0.19144338 0.076816961
v  -0.29694432 0.14312698 0.076816961
v  -0.27196786 0.14468557 0.076816954
v  -0.27196786 0.19144338 0.076816954
v  -0.26577246 0.14468557 0.076816954
v  -0.24858895 0.17585744 0.076816946
v  -0.26577246 0.17585745 0.076816954
v  -0.24858895 0.14468557 0.076816946
v  -0.24239354 0.14468555 0.076816946
v  -0.21741706 0.19144337 0.076816939
v  -0.24239352 0.19144338 0.076816946
v  -0.21741708 0.14312696 0.076816939
v  0.053934127 0.11195502 0.058066875
v  0.053934157 0.19144331 0.058066875
v  0.078910589 0.11195501 0.058066867
v  0.078910619 0.19144329 0.058066867
v  0.078910619 0.17585737 0.058066867
v  0.11008251 0.17585737 0.05806686
v  0.11008248 0.111955 0.05806686
v  0.085106015 0.11195501 0.058066867
v  0.085106015 0.15871283 0.058066867
v  0.078910589 0.15871283 0.058066867
v  0.046141177 0.12909955 0.058066878
v  0.046141177 0.11195502 0.058066878
v  0.030555218 0.12909955 0.058066882
v  0.0055787265 0.11195502 0.05806689
v  0.0055787563 0.19144332 0.05806689
v  0.030555248 0.19144331 0.058066882
v  0.046141207 0.17585737 0.058066878
v  0.046141177 0.15871283 0.058066878
v  0.030555248 0.17585737 0.058066882
v  0.030555218 0.15871283 0.058066882
v  -0.0022142231 0.11195502 0.05806689
v  -0.027190685 0.11195503 0.058066897
v  -0.0022141933 0.17585738 0.05806689
v  -0.027190685 0.15871285 0.058066897
v  -0.033386111 0.11195503 0.058066897
v  -0.058362573 0.11195504 0.058066905
v  -0.033386111 0.15871286 0.058066897
v  -0.058362558 0.15871286 0.058066905
v  -0.064557984 0.11195504 0.058066905
v  -0.089534447 0.11195505 0.058066912
v  -0.06455797 0.15871286 0.058066905
v  -0.089534432 0.17585739 0.058066912
v  -0.048972011 0.17585739 0.058066901
v  -0.04897204 0.16806442 0.058066901
v  -0.042776614 0.17585739 0.058066897
v  -0.042776644 0.16806442 0.058066897
v  -0.097327396 0.17585739 0.058066912
v  -0.097327396 0.15871286 0.058066912
v  -0.14568278 0.17585742 0.058066923
v  -0.12070632 0.11195505 0.058066919
v  -0.1456828 0.11195506 0.058066923
v  -0.1207063 0.15871288 0.058066919
v  -0.18464765 0.13533399 0.058066934
v  -0.15347576 0.17585742 0.058066927
v  -0.17845222 0.13533399 0.058066931
v  -0.17845222 0.12909961 0.058066931
v  -0.15347578 0.11195506 0.058066927
v  -0.18464765 0.12909961 0.058066934
v  -0.20962411 0.15247852 0.058066938
v  -0.17845222 0.15247852 0.058066931
v  -0.20962411 0.11195508 0.058066938
v  -0.20962411 0.15871289 0.058066938
v  -0.20962411 0.17585742 0.058066938
v  -0.17845222 0.15871289 0.058066931
v  -0.22521007 0.11195508 0.058066942
v  -0.25018653 0.11195508 0.058066949
v  -0.22521006 0.14312696 0.058066942
v  -0.2501865 0.12754102 0.058066949
v  -0.26417491 0.11195509 0.058066949
v  -0.28915137 0.1119551 0.058066957
v  -0.26417491 0.12754104 0.058066949
v  -0.28915137 0.14312698 0.058066957
v  -0.29694435 0.14312698 0.05806696
v  -0.29694432 0.19144338 0.05806696
v  -0.27196786 0.19144338 0.058066953
v  -0.27196786 0.14468557 0.058066953
v  -0.26577246 0.17585745 0.058066953
v  -0.24858895 0.17585744 0.058066949
v  -0.26577246 0.14468557 0.058066953
v  -0.24858895 0.14468557 0.058066949
v  -0.24239354 0.19144338 0.058066949
v  -0.21741706 0.19144337 0.058066942
v  -0.24239355 0.14468555 0.058066949
v  -0.21741709 0.14312696 0.058066942
v  0.022941992 -0.013044987 0.076816879
v  -0.0020344704 0.010333929 0.076816887
v  -0.0020344704 -0.013044981 0.076816887
v  -0.0082298815 0.010333931 0.076816887
v  -0.033206344 -0.013044974 0.076816894
v  -0.0082298815 -0.01304498 0.076816887
v  -0.033206329 0.066443317 0.076816894
v  -0.0082298666 0.02747846 0.076816887
v  -0.0082298666 0.066443309 0.076816887
v  -0.0020344555 0.027478456 0.076816887
v  0.022942007 0.050857365 0.076816879
v  -0.0020344555 0.050857373 0.076816887
v  0.022942007 0.025919862 0.076816879
v  0.015149042 0.019685484 0.076816887
v  0.022942007 0.019685484 0.076816879
v  0.015149042 0.025919862 0.076816887
v  -0.040999323 -0.013044972 0.076816894
v  -0.097147666 0.0040995739 0.076816909
v  -0.097147673 -0.013044959 0.076816909
v  -0.0659758 0.010333944 0.076816902
v  -0.097147658 0.050857395 0.076816909
v  -0.097147666 0.010333952 0.076816909
v  -0.040999308 0.033712849 0.076816894
v  -0.040999308 0.05085738 0.076816894
v  -0.072171196 0.033712856 0.076816902
v  -0.072171196 0.027478475 0.076816902
v  -0.040999308 0.027478468 0.076816894
v  -0.0659758 0.0040995665 0.076816902
v  -0.1299171 0.010333959 0.076816916
v  -0.10494062 0.050857402 0.076816916
v  -0.13611251 0.010333961 0.076816924
v  -0.1299171 0.0040995814 0.076816916
v  -0.10494064 -0.013044957 0.076816916
v  -0.13611251 0.0040995833 0.076816924
v  -0.16108899 -0.013044943 0.076816924
v  -0.1299171 0.02747849 0.076816916
v  -0.16108897 0.027478497 0.076816924
v  -0.1299171 0.033712871 0.076816916
v  -0.16108897 0.05085741 0.076816924
v  -0.16108897 0.033712879 0.076816924
v  -0.1844679 0.0040995944 0.076816931
v  -0.16888195 -0.013044941 0.076816931
v  -0.16888195 0.0040995907 0.076816931
v  -0.20944436 -0.013044932 0.076816939
v  -0.18446788 0.066443354 0.076816931
v  -0.20944434 0.066443361 0.076816939
v  -0.18446788 0.050857417 0.076816931
v  -0.16888195 0.033712879 0.076816931
v  -0.16888194 0.050857417 0.076816931
v  -0.18446788 0.033712883 0.076816931
v  -0.0020344704 -0.013044981 0.05806689
v  -0.0020344704 0.010333929 0.05806689
v  0.022941992 -0.013044987 0.058066882
v  -0.0082298815 -0.01304498 0.05806689
v  -0.033206344 -0.013044974 0.058066897
v  -0.0082298815 0.010333931 0.05806689
v  -0.033206329 0.066443317 0.058066897
v  -0.0082298666 0.066443309 0.05806689
v  -0.0082298666 0.02747846 0.05806689
v  -0.0020344555 0.050857373 0.05806689
v  0.022942007 0.050857365 0.058066882
v  -0.0020344555 0.027478456 0.05806689
v  0.022942007 0.025919862 0.058066882
v  0.022942007 0.019685484 0.058066882
v  0.015149042 0.019685484 0.058066882
v  0.015149042 0.025919862 0.058066882
v  -0.097147681 -0.013044959 0.058066912
v  -0.097147673 0.0040995739 0.058066912
v  -0.040999323 -0.013044972 0.058066897
v  -0.097147673 0.010333952 0.058066912
v  -0.097147666 0.050857395 0.058066912
v  -0.0659758 0.010333944 0.058066905
v  -0.040999308 0.05085738 0.058066897
v  -0.040999308 0.033712849 0.058066897
v  -0.072171196 0.033712856 0.058066905
v  -0.072171196 0.027478475 0.058066905
v  -0.040999308 0.027478468 0.058066897
v  -0.0659758 0.0040995665 0.058066905
v  -0.13611251 0.010333961 0.058066919
v  -0.10494063 0.050857402 0.058066912
v  -0.12991711 0.010333959 0.058066919
v  -0.12991711 0.0040995814 0.058066919
v  -0.10494065 -0.013044957 0.058066912
v  -0.13611251 0.0040995833 0.058066919
v  -0.16108897 0.027478497 0.058066927
v  -0.12991711 0.02747849 0.058066919
v  -0.16108899 -0.013044943 0.058066927
v  -0.16108897 0.033712879 0.058066927
v  -0.16108897 0.05085741 0.058066927
v  -0.12991711 0.033712871 0.058066919
v  -0.16888195 0.0040995907 0.058066927
v  -0.16888195 -0.013044941 0.058066927
v  -0.1844679 0.0040995944 0.058066931
v  -0.20944437 -0.013044932 0.058066938
v  -0.20944434 0.066443361 0.058066938
v  -0.18446788 0.066443354 0.058066931
v  -0.16888195 0.050857417 0.058066927
v  -0.16888195 0.033712879 0.058066927
v  -0.18446788 0.050857417 0.058066931
v  -0.18446788 0.033712883 0.058066931

# 0 UV coordinates

# 6 vertex normals
vn 2.9802327e-10 0 0.0012500001
vn -2.9802327e-10 0 -0.0012500001
vn -0.0012500001 2.9802327e-10 2.9802327e-10
vn 2.9802327e-10 0.0012500001 -7.1054298e-17
vn 0.0012500001 -2.9802327e-10 -2.9802327e-10
vn -2.9802327e-10 -0.0012500001 7.1054298e-17

# Mesh 'mesh_id49' with 276 faces
g mesh_id49
usemtl 62
f  1//1 2//1 3//1
f  2//1 4//1 5//1
f  4//1 6//1 7//1
f  6//1 8//1 9//1
f  10//1 2//1 1//1
f  10//1 4//1 2//1
f  4//1 8//1 6//1
f  4//1 10//1 8//1
f  11//1 12//1 13//1
f  11//1 14//1 12//1
f  14//1 15//1 16//1
f  17//1 18//1 19//1
f  17//1 20//1 18//1
f  20//1 14//1 11//1
f  14//1 17//1 15//1
f  14//1 20//1 17//1
f  21//1 22//1 23//1
f  21//1 24//1 22//1
f  25//1 26//1 27//1
f  25//1 28//1 26//1
f  29//1 30//1 31//1
f  29//1 32//1 30//1
f  32//1 33//1 34//1
f  35//1 21//1 36//1
f  35//1 24//1 21//1
f  24//1 28//1 25//1
f  28//1 32//1 29//1
f  33//1 24//1 35//1
f  33//1 28//1 24//1
f  33//1 32//1 28//1
f  37//1 38//1 39//1
f  40//1 41//1 42//1
f  40//1 37//1 41//1
f  40//1 38//1 37//1
f  43//1 44//1 45//1
f  46//1 44//1 43//1
f  46//1 47//1 44//1
f  48//1 47//1 46//1
f  49//1 50//1 51//1
f  52//1 53//1 54//1
f  52//1 44//1 53//1
f  48//1 49//1 47//1
f  45//1 49//1 48//1
f  45//1 50//1 49//1
f  50//1 44//1 52//1
f  50//1 45//1 44//1
f  55//1 56//1 57//1
f  55//1 58//1 56//1
f  59//1 60//1 61//1
f  59//1 62//1 60//1
f  62//1 63//1 64//1
f  63//1 65//1 66//1
f  67//1 68//1 69//1
f  67//1 70//1 68//1
f  71//1 72//1 73//1
f  71//1 74//1 72//1
f  55//1 59//1 58//1
f  55//1 62//1 59//1
f  62//1 65//1 63//1
f  65//1 70//1 67//1
f  70//1 74//1 71//1
f  74//1 62//1 55//1
f  62//1 70//1 65//1
f  62//1 74//1 70//1
f  75//2 76//2 77//2
f  78//2 79//2 76//2
f  80//2 81//2 79//2
f  82//2 83//2 81//2
f  77//2 76//2 84//2
f  76//2 79//2 84//2
f  81//2 83//2 79//2
f  83//2 84//2 79//2
f  85//2 86//2 87//2
f  86//2 88//2 87//2
f  89//2 90//2 88//2
f  91//2 92//2 93//2
f  92//2 94//2 93//2
f  87//2 88//2 94//2
f  90//2 93//2 88//2
f  93//2 94//2 88//2
f  95//2 96//2 97//2
f  96//2 98//2 97//2
f  99//2 100//2 101//2
f  100//2 102//2 101//2
f  103//2 104//2 105//2
f  104//2 106//2 105//2
f  107//2 108//2 106//2
f  109//2 97//2 110//2
f  97//2 98//2 110//2
f  101//2 102//2 98//2
f  105//2 106//2 102//2
f  110//2 98//2 108//2
f  98//2 102//2 108//2
f  102//2 106//2 108//2
f  111//2 112//2 113//2
f  114//2 115//2 116//2
f  115//2 113//2 116//2
f  113//2 112//2 116//2
f  117//2 118//2 119//2
f  119//2 118//2 120//2
f  118//2 121//2 120//2
f  120//2 121//2 122//2
f  123//2 124//2 125//2
f  126//2 127//2 128//2
f  127//2 118//2 128//2
f  121//2 125//2 122//2
f  122//2 125//2 117//2
f  125//2 124//2 117//2
f  128//2 118//2 124//2
f  118//2 117//2 124//2
f  129//2 130//2 131//2
f  130//2 132//2 131//2
f  133//2 134//2 135//2
f  134//2 136//2 135//2
f  137//2 138//2 136//2
f  139//2 140//2 138//2
f  141//2 142//2 143//2
f  142//2 144//2 143//2
f  145//2 146//2 147//2
f  146//2 148//2 147//2
f  132//2 135//2 131//2
f  135//2 136//2 131//2
f  138//2 140//2 136//2
f  143//2 144//2 140//2
f  147//2 148//2 144//2
f  131//2 136//2 148//2
f  140//2 144//2 136//2
f  144//2 148//2 136//2
f  3//3 76//3 75//3
f  3//3 2//3 76//3
f  2//4 78//4 76//4
f  2//4 5//4 78//4
f  5//5 79//5 78//5
f  5//5 4//5 79//5
f  4//4 80//4 79//4
f  4//4 7//4 80//4
f  7//5 81//5 80//5
f  7//5 6//5 81//5
f  6//6 82//6 81//6
f  6//6 9//6 82//6
f  9//3 83//3 82//3
f  9//3 8//3 83//3
f  8//6 84//6 83//6
f  8//6 10//6 84//6
f  10//5 77//5 84//5
f  10//5 1//5 77//5
f  1//6 75//6 77//6
f  1//6 3//6 75//6
f  11//4 85//4 87//4
f  11//4 13//4 85//4
f  13//5 86//5 85//5
f  13//5 12//5 86//5
f  12//6 88//6 86//6
f  12//6 14//6 88//6
f  14//3 89//3 88//3
f  14//3 16//3 89//3
f  16//4 90//4 89//4
f  16//4 15//4 90//4
f  15//5 93//5 90//5
f  15//5 17//5 93//5
f  17//4 91//4 93//4
f  17//4 19//4 91//4
f  19//5 92//5 91//5
f  19//5 18//5 92//5
f  18//6 94//6 92//6
f  18//6 20//6 94//6
f  20//5 87//5 94//5
f  20//5 11//5 87//5
f  21//5 95//5 97//5
f  21//5 23//5 95//5
f  23//6 96//6 95//6
f  23//6 22//6 96//6
f  22//3 98//3 96//3
f  22//3 24//3 98//3
f  24//6 101//6 98//6
f  24//6 25//6 101//6
f  25//5 99//5 101//5
f  25//5 27//5 99//5
f  27//6 100//6 99//6
f  27//6 26//6 100//6
f  26//3 102//3 100//3
f  26//3 28//3 102//3
f  28//6 105//6 102//6
f  28//6 29//6 105//6
f  29//5 103//5 105//5
f  29//5 31//5 103//5
f  31//6 104//6 103//6
f  31//6 30//6 104//6
f  30//3 106//3 104//3
f  30//3 32//3 106//3
f  32//4 107//4 106//4
f  32//4 34//4 107//4
f  34//5 108//5 107//5
f  34//5 33//5 108//5
f  33//4 110//4 108//4
f  33//4 35//4 110//4
f  35//3 109//3 110//3
f  35//3 36//3 109//3
f  36//4 97//4 109//4
f  36//4 21//4 97//4
f  39//5 112//5 111//5
f  39//5 38//5 112//5
f  38//6 116//6 112//6
f  38//6 40//6 116//6
f  40//5 114//5 116//5
f  40//5 42//5 114//5
f  42//6 115//6 114//6
f  42//6 41//6 115//6
f  41//3 113//3 115//3
f  41//3 37//3 113//3
f  37//4 111//4 113//4
f  37//4 39//4 111//4
f  44//5 121//5 118//5
f  44//5 47//5 121//5
f  47//6 125//6 121//6
f  47//6 49//6 125//6
f  49//3 123//3 125//3
f  49//3 51//3 123//3
f  51//4 124//4 123//4
f  51//4 50//4 124//4
f  50//3 128//3 124//3
f  50//3 52//3 128//3
f  52//6 126//6 128//6
f  52//6 54//6 126//6
f  54//3 127//3 126//3
f  54//3 53//3 127//3
f  53//4 118//4 127//4
f  53//4 44//4 118//4
f  45//5 122//5 117//5
f  45//5 48//5 122//5
f  48//4 120//4 122//4
f  48//4 46//4 120//4
f  46//3 119//3 120//3
f  46//3 43//3 119//3
f  43//6 117//6 119//6
f  43//6 45//6 117//6
f  55//5 129//5 131//5
f  55//5 57//5 129//5
f  57//6 130//6 129//6
f  57//6 56//6 130//6
f  56//3 132//3 130//3
f  56//3 58//3 132//3
f  58//6 135//6 132//6
f  58//6 59//6 135//6
f  59//5 133//5 135//5
f  59//5 61//5 133//5
f  61//6 134//6 133//6
f  61//6 60//6 134//6
f  60//3 136//3 134//3
f  60//3 62//3 136//3
f  62//6 137//6 136//6
f  62//6 64//6 137//6
f  64//3 138//3 137//3
f  64//3 63//3 138//3
f  63//4 139//4 138//4
f  63//4 66//4 139//4
f  66//5 140//5 139//5
f  66//5 65//5 140//5
f  65//4 143//4 140//4
f  65//4 67//4 143//4
f  67//3 141//3 143//3
f  67//3 69//3 141//3
f  69//4 142//4 141//4
f  69//4 68//4 142//4
f  68//5 144//5 142//5
f  68//5 70//5 144//5
f  70//4 147//4 144//4
f  70//4 71//4 147//4
f  71//3 145//3 147//3
f  71//3 73//3 145//3
f  73//4 146//4 145//4
f  73//4 72//4 146//4
f  72//5 148//5 146//5
f  72//5 74//5 148//5
f  74//6 131//6 148//6
f  74//6 55//6 131//6

# Mesh 'mesh_id50' with 188 faces
g mesh_id50
usemtl 64
f  149//1 150//1 151//1
f  152//1 153//1 154//1
f  152//1 155//1 153//1
f  155//1 156//1 157//1
f  158//1 159//1 160//1
f  158//1 161//1 159//1
f  162//1 149//1 163//1
f  162//1 150//1 149//1
f  162//1 152//1 150//1
f  152//1 156//1 155//1
f  156//1 161//1 158//1
f  164//1 152//1 162//1
f  164//1 156//1 152//1
f  164//1 161//1 156//1
f  165//1 166//1 167//1
f  168//1 169//1 170//1
f  169//1 171//1 172//1
f  169//1 173//1 171//1
f  169//1 174//1 173//1
f  174//1 165//1 175//1
f  165//1 176//1 166//1
f  168//1 174//1 169//1
f  168//1 165//1 174//1
f  168//1 176//1 165//1
f  177//1 178//1 179//1
f  180//1 178//1 177//1
f  180//1 181//1 178//1
f  182//1 181//1 180//1
f  183//1 184//1 185//1
f  186//1 187//1 188//1
f  186//1 178//1 187//1
f  182//1 183//1 181//1
f  179//1 183//1 182//1
f  179//1 184//1 183//1
f  184//1 178//1 186//1
f  184//1 179//1 178//1
f  189//1 190//1 191//1
f  189//1 192//1 190//1
f  192//1 193//1 194//1
f  195//1 196//1 197//1
f  195//1 198//1 196//1
f  198//1 192//1 189//1
f  192//1 195//1 193//1
f  192//1 198//1 195//1
f  199//2 200//2 201//2
f  202//2 203//2 204//2
f  203//2 205//2 204//2
f  206//2 207//2 205//2
f  208//2 209//2 210//2
f  209//2 211//2 210//2
f  212//2 201//2 213//2
f  201//2 200//2 213//2
f  200//2 204//2 213//2
f  205//2 207//2 204//2
f  210//2 211//2 207//2
f  213//2 204//2 214//2
f  204//2 207//2 214//2
f  207//2 211//2 214//2
f  215//2 216//2 217//2
f  218//2 219//2 220//2
f  221//2 222//2 219//2
f  222//2 223//2 219//2
f  223//2 224//2 219//2
f  225//2 217//2 224//2
f  216//2 226//2 217//2
f  219//2 224//2 220//2
f  224//2 217//2 220//2
f  217//2 226//2 220//2
f  227//2 228//2 229//2
f  229//2 228//2 230//2
f  228//2 231//2 230//2
f  230//2 231//2 232//2
f  233//2 234//2 235//2
f  236//2 237//2 238//2
f  237//2 228//2 238//2
f  231//2 235//2 232//2
f  232//2 235//2 227//2
f  235//2 234//2 227//2
f  238//2 228//2 234//2
f  228//2 227//2 234//2
f  239//2 240//2 241//2
f  240//2 242//2 241//2
f  243//2 244//2 242//2
f  245//2 246//2 247//2
f  246//2 248//2 247//2
f  241//2 242//2 248//2
f  244//2 247//2 242//2
f  247//2 248//2 242//2
f  151//3 200//3 199//3
f  151//3 150//3 200//3
f  150//6 204//6 200//6
f  150//6 152//6 204//6
f  152//5 202//5 204//5
f  152//5 154//5 202//5
f  154//6 203//6 202//6
f  154//6 153//6 203//6
f  153//3 205//3 203//3
f  153//3 155//3 205//3
f  155//4 206//4 205//4
f  155//4 157//4 206//4
f  157//5 207//5 206//5
f  157//5 156//5 207//5
f  156//4 210//4 207//4
f  156//4 158//4 210//4
f  158//3 208//3 210//3
f  158//3 160//3 208//3
f  160//4 209//4 208//4
f  160//4 159//4 209//4
f  159//5 211//5 209//5
f  159//5 161//5 211//5
f  161//6 214//6 211//6
f  161//6 164//6 214//6
f  164//5 213//5 214//5
f  164//5 162//5 213//5
f  162//4 212//4 213//4
f  162//4 163//4 212//4
f  163//5 201//5 212//5
f  163//5 149//5 201//5
f  149//6 199//6 201//6
f  149//6 151//6 199//6
f  167//3 216//3 215//3
f  167//3 166//3 216//3
f  166//4 226//4 216//4
f  166//4 176//4 226//4
f  176//3 220//3 226//3
f  176//3 168//3 220//3
f  168//6 218//6 220//6
f  168//6 170//6 218//6
f  170//3 219//3 218//3
f  170//3 169//3 219//3
f  169//4 221//4 219//4
f  169//4 172//4 221//4
f  172//5 222//5 221//5
f  172//5 171//5 222//5
f  171//6 223//6 222//6
f  171//6 173//6 223//6
f  173//5 224//5 223//5
f  173//5 174//5 224//5
f  174//4 225//4 224//4
f  174//4 175//4 225//4
f  175//5 217//5 225//5
f  175//5 165//5 217//5
f  165//6 215//6 217//6
f  165//6 167//6 215//6
f  178//5 231//5 228//5
f  178//5 181//5 231//5
f  181//6 235//6 231//6
f  181//6 183//6 235//6
f  183//3 233//3 235//3
f  183//3 185//3 233//3
f  185//4 234//4 233//4
f  185//4 184//4 234//4
f  184//3 238//3 234//3
f  184//3 186//3 238//3
f  186//6 236//6 238//6
f  186//6 188//6 236//6
f  188//3 237//3 236//3
f  188//3 187//3 237//3
f  187//4 228//4 237//4
f  187//4 178//4 228//4
f  179//5 232//5 227//5
f  179//5 182//5 232//5
f  182//4 230//4 232//4
f  182//4 180//4 230//4
f  180//3 229//3 230//3
f  180//3 177//3 229//3
f  177//6 227//6 229//6
f  177//6 179//6 227//6
f  189//4 239//4 241//4
f  189//4 191//4 239//4
f  191//5 240//5 239//5
f  191//5 190//5 240//5
f  190//6 242//6 240//6
f  190//6 192//6 242//6
f  192//3 243//3 242//3
f  192//3 194//3 243//3
f  194//4 244//4 243//4
f  194//4 193//4 244//4
f  193//5 247//5 244//5
f  193//5 195//5 247//5
f  195//4 245//4 247//4
f  195//4 197//4 245//4
f  197//5 246//5 245//5
f  197//5 196//5 246//5
f  196//6 248//6 246//6
f  196//6 198//6 248//6
f  198//5 241//5 248//5
f  198//5 189//5 241//5

