# Blender v2.91.0 OBJ File: 'arrows.blend'
# www.blender.org
mtllib arrows.mtl
o Cube
v 0.078687 0.055457 -0.178315
v 0.078687 -0.055457 -0.178315
v 0.078687 0.055457 0.178315
v 0.078687 -0.055457 0.178315
v -0.702310 0.055457 -0.178315
v -0.702310 -0.055457 -0.178315
v -0.702310 0.055457 0.178315
v -0.702310 -0.055457 0.178315
v 0.099474 0.071421 -0.388823
v 0.099474 -0.071421 -0.388823
v 0.099474 0.071421 0.388823
v 0.099474 -0.071421 0.388823
v 0.650237 0.071421 -0.018940
v 0.650237 -0.071421 -0.018940
v 0.650237 0.071421 0.018940
v 0.650237 -0.071421 0.018940
vt 0.625000 0.500000
vt 0.875000 0.500000
vt 0.875000 0.750000
vt 0.625000 0.750000
vt 0.375000 0.750000
vt 0.625000 1.000000
vt 0.375000 1.000000
vt 0.375000 0.000000
vt 0.625000 0.000000
vt 0.625000 0.250000
vt 0.375000 0.250000
vt 0.125000 0.500000
vt 0.375000 0.500000
vt 0.125000 0.750000
vt 0.375000 0.750000
vt 0.625000 0.750000
vt 0.375000 0.500000
vt 0.375000 0.500000
vt 0.375000 0.750000
vt 0.625000 0.500000
vt 0.625000 0.500000
vt 0.625000 0.750000
vn 0.0000 1.0000 0.0000
vn 0.0000 0.0000 1.0000
vn -1.0000 0.0000 0.0000
vn 0.0000 -1.0000 0.0000
vn -0.9952 0.0000 0.0983
vn 0.0000 0.0000 -1.0000
vn -0.9952 0.0000 -0.0983
vn -0.6091 -0.7931 0.0000
vn -0.6091 0.7931 0.0000
vn 1.0000 0.0000 0.0000
vn 0.5575 0.0000 0.8302
vn 0.5575 0.0000 -0.8302
usemtl Material
s off
f 1/1/1 5/2/1 7/3/1 3/4/1
f 4/5/2 3/4/2 7/6/2 8/7/2
f 8/8/3 7/9/3 5/10/3 6/11/3
f 6/12/4 2/13/4 4/5/4 8/14/4
f 3/4/5 4/5/5 12/15/5 11/16/5
f 6/11/6 5/10/6 1/1/6 2/13/6
f 12/15/4 10/17/4 14/18/4 16/19/4
f 2/13/7 1/1/7 9/20/7 10/17/7
f 4/5/8 2/13/8 10/17/8 12/15/8
f 1/1/9 3/4/9 11/16/9 9/20/9
f 14/18/10 13/21/10 15/22/10 16/19/10
f 11/16/11 12/15/11 16/19/11 15/22/11
f 9/20/1 11/16/1 15/22/1 13/21/1
f 10/17/12 9/20/12 13/21/12 14/18/12
